<?xml version="1.0" encoding="UTF-8"?>
<svg id="_图层_2" data-name="图层 2" xmlns="http://www.w3.org/2000/svg" width="740.34" height="222.45" viewBox="0 0 740.34 222.45">
  <defs>
    <style>
      .cls-1 {
        fill: #133daf;
      }

      .cls-1, .cls-2, .cls-3, .cls-4, .cls-5, .cls-6, .cls-7, .cls-8, .cls-9, .cls-10, .cls-11, .cls-12, .cls-13, .cls-14, .cls-15, .cls-16, .cls-17, .cls-18, .cls-19, .cls-20, .cls-21, .cls-22, .cls-23, .cls-24, .cls-25, .cls-26, .cls-27, .cls-28, .cls-29, .cls-30, .cls-31, .cls-32, .cls-33, .cls-34, .cls-35, .cls-36, .cls-37, .cls-38, .cls-39, .cls-40, .cls-41, .cls-42, .cls-43, .cls-44, .cls-45, .cls-46, .cls-47, .cls-48, .cls-49, .cls-50, .cls-51, .cls-52, .cls-53, .cls-54, .cls-55, .cls-56, .cls-57, .cls-58, .cls-59, .cls-60, .cls-61, .cls-62, .cls-63, .cls-64, .cls-65, .cls-66, .cls-67, .cls-68, .cls-69, .cls-70, .cls-71, .cls-72, .cls-73, .cls-74, .cls-75, .cls-76, .cls-77, .cls-78 {
        stroke-width: 0px;
      }

      .cls-2 {
        fill: #0291fa;
      }

      .cls-3 {
        fill: #2168b8;
      }

      .cls-4 {
        fill: #0b4b8f;
      }

      .cls-5 {
        fill: #1679cc;
      }

      .cls-6 {
        fill: #0421c0;
      }

      .cls-7 {
        fill: #1247a0;
      }

      .cls-8 {
        fill: #03aefc;
      }

      .cls-9 {
        fill: #0f298f;
      }

      .cls-10 {
        fill: #4db1fa;
      }

      .cls-11 {
        fill: #79b3e7;
      }

      .cls-12 {
        fill: #0346c6;
      }

      .cls-13 {
        fill: #7fe5fc;
      }

      .cls-14 {
        fill: #9dcaea;
      }

      .cls-15 {
        fill: #0280ee;
      }

      .cls-16 {
        fill: #1da8fb;
      }

      .cls-17 {
        fill: #094fef;
      }

      .cls-18 {
        fill: #1684e2;
      }

      .cls-19 {
        fill: #033dbf;
      }

      .cls-20 {
        fill: #029efb;
      }

      .cls-21 {
        fill: #019ffa;
      }

      .cls-22 {
        fill: #088ff1;
      }

      .cls-23 {
        fill: #500d8c;
      }

      .cls-24 {
        fill: #0322be;
      }

      .cls-25 {
        fill: #0269d9;
      }

      .cls-26 {
        fill: #bef2fb;
      }

      .cls-27 {
        fill: #820abb;
      }

      .cls-28 {
        fill: #1671b5;
      }

      .cls-29 {
        fill: #0235d4;
      }

      .cls-30 {
        fill: #098ded;
      }

      .cls-31 {
        fill: #74c8f4;
      }

      .cls-32 {
        fill: #e151e8;
      }

      .cls-33 {
        fill: #ade5fb;
      }

      .cls-34 {
        fill: #fac603;
      }

      .cls-35 {
        fill: #1060ad;
      }

      .cls-36 {
        fill: #08279b;
      }

      .cls-37 {
        fill: #0f248f;
      }

      .cls-38 {
        fill: #0c248e;
      }

      .cls-39 {
        fill: #025dcf;
      }

      .cls-40 {
        fill: #4d1ca9;
      }

      .cls-41 {
        fill: #036fe5;
      }

      .cls-42 {
        fill: #02adfd;
      }

      .cls-43 {
        fill: #a449b5;
      }

      .cls-44 {
        fill: #23a2d8;
      }

      .cls-45 {
        fill: #1098f1;
      }

      .cls-46 {
        fill: #f8a302;
      }

      .cls-47 {
        fill: #013de7;
      }

      .cls-48 {
        fill: #0e77c0;
      }

      .cls-49 {
        fill: #1285cf;
      }

      .cls-50 {
        fill: #0247d1;
      }

      .cls-51 {
        fill: #e9e5d7;
      }

      .cls-52 {
        fill: #21a2f3;
      }

      .cls-53 {
        fill: #037ae9;
      }

      .cls-54 {
        fill: #058ae7;
      }

      .cls-55 {
        fill: #0c79c4;
      }

      .cls-56 {
        fill: #152689;
      }

      .cls-57 {
        fill: #6d0dcd;
      }

      .cls-58 {
        fill: #0b60c0;
      }

      .cls-59 {
        fill: #0325bc;
      }

      .cls-60 {
        fill: #1583c4;
      }

      .cls-61 {
        fill: #0955a4;
      }

      .cls-62 {
        fill: #e4f1f7;
      }

      .cls-63 {
        fill: #1aa9e5;
      }

      .cls-64 {
        fill: #d1a180;
      }

      .cls-65 {
        fill: #bbf0fb;
      }

      .cls-66 {
        fill: #eb9114;
      }

      .cls-67 {
        fill: #1e8ad2;
      }

      .cls-68 {
        fill: #34c7fc;
      }

      .cls-69 {
        fill: #50b4f8;
      }

      .cls-70 {
        fill: #2988c5;
      }

      .cls-71 {
        fill: #055dc8;
      }

      .cls-72 {
        fill: #0079e2;
      }

      .cls-73 {
        fill: #8410da;
      }

      .cls-74 {
        fill: #04acfc;
      }

      .cls-75 {
        fill: #651d9f;
      }

      .cls-76 {
        fill: #1b1c66;
      }

      .cls-77 {
        fill: #c0a4a5;
      }

      .cls-78 {
        fill: #0b2499;
      }
    </style>
  </defs>
  <g id="_图层_1-2" data-name="图层 1">
    <g>
      <path class="cls-32" d="m136.52,116.38c2.22-.38,4.48-2.75,6.65.1,2.78,2.85,6.42,4.46,9.74,6.48,2.82,1.72,5.52,3.68,8.59,5,.84.36,1.47,1.02,1.51,2.05-.05.37-.17.71-.37,1.03-3.8,2.86-8.28,4.59-12.18,7.3-5.15,3.01-10.27,6.09-15.8,8.38-.76.17-1.53.16-2.29-.03-7.12-3.03-13.21-7.83-19.91-11.57-.44-.4-.75-.88-.92-1.45-.42-2.24.98-3.3,2.74-4,6-2.37,11.07-6.27,16.35-9.82,1.66-1.03,3.34-2.03,4.88-3.23.31-.19.65-.27,1.01-.23Z"/>
      <path class="cls-47" d="m110.69,183.05c-.3.31-.59.63-.89.94-.73,4.41-.04,8.85-.29,13.27-.08,1.37.37,2.87-1.08,3.86-3.42,2.91-7.54,4.64-11.44,6.74-4.54,2.44-9.18,4.71-13.52,7.53-2.08.71-3.82.54-4.7-1.84-.56-4.51-.67-9.02.08-13.52,1.56-2.12,1.43-4.59,1.3-7-.16-2.96,1.02-5.26,3.28-6.99,7.2-5.48,15.51-8.86,23.78-12.29.93-.38,2-.53,2.94.15,1.5,2.52.79,5.31.98,7.99-.03.43-.19.82-.46,1.15Z"/>
      <path class="cls-57" d="m112.93,134.56c6.85,3.16,12.82,7.82,19.45,11.35,2.42.77,2.82,2.73,2.75,4.87-.26,8.08.62,16.15.06,24.23-.08.45-.25.85-.52,1.22-.21.51-.41,1.02-.62,1.54-.69-.1-1.33-.38-2.03-.47-5.94-2.11-10.92-5.91-16.23-9.15-5.86-1.77-7.91-5.82-7.19-11.68.26-2.13-.13-4.34.53-6.45,1.57-2.62,1.98-5.25,1.46-8.41-.39-2.35-1.84-5.87,2.34-7.04Z"/>
      <path class="cls-74" d="m6.28,66.47c2.26-3.03,5.98-3.82,8.93-5.81,2.96-2,6.27-3.5,9.24-5.49,3.67-2.45,7.35-4.34,11.89-2.76.8.53,1.01,1.37,1.17,2.23.23,4.75.29,9.52-.01,14.26-.22,3.36.8,5.75,3.78,7.29,1.73,1.68,1.38,3.17-.5,4.41-5.25,3.46-10.43,5.83-16.63,1.6-6.13-4.19-12.91-7.35-19.23-11.26-1.92-2.22.68-3.06,1.37-4.48Z"/>
      <path class="cls-63" d="m65.79,15.29c4.87-2.84,9.71-5.74,14.62-8.5,2.31-1.3,4.56-1.59,7.13.06,9.69,6.21,19.57,12.11,29.51,17.92,3.99,2.33,8.47,4.29,11.35,8.28.36.75-.15,1.01-.7,1.24-1.79-.02-3.11,1.15-4.57,1.9-11.64,6.01-23.17,12.25-34.51,18.8-4.27,2.47-7.6,2.24-12.03-.4-9.04-5.39-17.99-10.95-27.17-16.12-1.51-.85-3.38-1.57-3.12-3.9,1.82-1.47,3.41-.49,4.91.56,8.96,6.3,19.14,10.54,28.19,16.68,1.64,1.11,3.35.83,5.18.23,6.19-2.02,11.47-5.79,17.17-8.75,6.11-3.17,11.26-8.04,18.01-10.08,2.09-.63,2-1.69.38-2.88-5.3-3.88-11.28-6.62-16.85-10.06-2.05-1.27-4.22-2.24-6.12-3.86-3.45-2.94-7.67-4.71-11.58-6.95-1.71-.97-3.17-.11-4.71.67-6.79,3.42-13.25,7.4-19.59,11.57-4.95,3.26-10.83,4.88-15.32,8.93-.88.79-2.06,1.08-3.24.4-.97-1.62.8-1.83,1.36-2.66-.01-.21.02-.42.1-.61,6.71-5.02,13.96-9.1,21.61-12.47Z"/>
      <path class="cls-3" d="m6.28,66.47c.48,1.7-2.16,2.04-1.63,3.76.97,6.66.56,13.37.32,20.03-.18,5.1,1.36,8.52,5.82,11.09,7.01,4.04,14.36,7.51,20.87,12.39.28.21.75.14,1.14.17,5.47-.65,6.51.17,7.2,5.69,1.15,9.15,1.13,9.23,10.38,11.3,3.58.8,5.79,2.48,5.94,6.37.11,2.88,2.05,5.64.59,8.64-.29.35-.66.58-1.1.69-.69.11-1.32-.02-1.87-.47-1.04-1.27-.79-2.81-.89-4.27-.25-2.13.39-4.47-1.51-6.2-3.4-1.15-7-1.45-10.43-2.46-2.6-.76-4.16-2.22-4.5-5.02-.29-2.4-.96-4.78-.91-7.2.05-2.52-1.25-2.71-3.18-2.19-1.92-.15-3.75-.42-3.76-2.98-2.76-2.09-5.38-4.34-8.47-6-5.3-2.84-10.48-5.89-15.72-8.84-1.54-.87-1.85-2.13-1.85-3.86.02-8.85-.02-17.7-.27-26.55-.08-2.95,2.33-2.95,3.83-4.09Z"/>
      <path class="cls-51" d="m28.76,115.82c1.35.47,1.6,2.47,3.35,2.39.11,1.95-1.37,1.52-2.11,1.07-4.31-2.63-7.82-.61-11.42,1.63-4.8,2.98-10.04,5.23-14.4,8.92-.79.55-1.29,1.23-1.17,2.26.97,8.35.26,16.72.42,25.08.04,2.09.4,3.76,2.48,4.77,6.13,2.98,11.88,6.62,17.54,10.41,2.48,1.66,5.2,2.78,7.92,3.95,1.04.88.74,1.78.04,2.69-.18.1-.36.2-.54.31-4.33.56-6.75-2.72-9.6-4.95-5.19-4.05-11.34-6.46-16.82-10.03-2.62-1.71-4.11-3.93-4.21-6.42-.36-8.58-.17-17.19-.19-25.79,0-2.23.99-3.9,2.75-5.25,6.21-4.76,13.74-7.27,20.12-11.76,2.05-1.44,3.85.84,5.85.74Z"/>
      <path class="cls-38" d="m79.72,214.09c.98,1.58,2.45,1.03,3.83.9.49.39.5.78,0,1.16-1.54,1.14-2.97.4-4.3-.38-5.41-3.14-10.79-6.33-16.18-9.51-1.42-.84-2.98-1.5-4.35-2.3-2.55-1.5-5.54-2.97-4.08-7.31.81-2.41-.38-5.33.29-8-.71-1.86-.18-3.8-.33-5.69,2.2-1.16,1.99.8,2.16,1.83.66,3.93.57,7.93.62,11.89.04,2.9,1.19,4.29,3.71,5.52,6.64,3.25,13.48,6.28,18.63,11.89Z"/>
      <path class="cls-44" d="m130.88,52.28c4.74-1.11,8.72,1.29,12.1,3.72,4.73,3.4,10.3,5.05,15.03,8.34,1.59,1.1,3.05,2.3,4.5,3.55.51.97.84,1.94.01,2.91-.73.69-1.56.89-2.5.46-5.27-7.33-13.86-9.64-21.16-13.89-2.32-1.35-4.59-3.55-7.77-2.39-.88-.33-.93-1.05-.86-1.83.12-.36.33-.66.65-.87Z"/>
      <path class="cls-67" d="m153.76,106.44c-4.32,1.35-8.09,3.84-11.86,6.2-1.82,1.14-4.9.68-5.38,3.74-.16.15-.35.23-.57.22-.39,1.15-1.1,1.49-2.19.88-.54-1.84.51-3.31,1.12-4.88.78-1.23,1.85-2.33,3.26-2.49,7.04-.83,12.12-5.72,18.16-8.62,1.6-.77,2.99-2.08,4.94-1.05.31.23.53.52.66.89-.01.2-.07.38-.17.55-2.34,2.07-4.78,3.97-7.97,4.56Z"/>
      <path class="cls-60" d="m162.5,70.25c.25-.79-.8-1.58,0-2.37,1.39.13,1.97.84,1.97,2.28.02,6.54.33,13.08.1,19.6-.1,2.7.27,5.37.09,8.07-.13,1.9-.67,3.26-2.77,3.5,0,0-.17-.23-.17-.23-1.31-2.42.3-4.75.23-7.15-.18-6.55.21-13.1-.26-19.64-.1-1.46-.05-2.82.8-4.05Z"/>
      <path class="cls-37" d="m133.12,176.43c.73.15.68.85.92,1.34,0,2.57.05,5.14,0,7.71-.09,4.31-3.01,6.47-6.75,4.61-5.4-2.69-11.55-3.57-16.6-7.04-.04-.23-.08-.47-.12-.7,2.2-1.53,4.22-.51,6.11.58,3.29,1.89,6.95,2.73,10.54,3.72,3.39.94,4.33.03,4.7-3.56.23-2.24-.63-4.7,1.2-6.65Z"/>
      <path class="cls-23" d="m164.15,129.66c.59,10.36.88,20.72-.25,31.07-1.31.72-1.66-.22-2.02-1.17.35-9.65-.57-19.33.54-28.97l.05-.11c.47-.45.79-1.2,1.67-.83Z"/>
      <path class="cls-28" d="m44.08,28.38c-.54.78-1.07,1.56-1.61,2.34-.28,1.57-2.08,1.95-2.58,3.34-1.77,3.99-.42,8.16-.71,12.23-.13,1.79.1,3.61-.16,5.4-.23,1.52-.43,3.17-2.61,3.06-.02-.78-.04-1.56-.07-2.33,0-4.49,0-8.97-.03-13.46-.05-7.27.47-7.99,7.77-10.57Z"/>
      <path class="cls-1" d="m83.54,216.16c0-.39,0-.78,0-1.17,3-3.66,7.56-4.92,11.5-6.93,4.3-2.2,8.42-4.61,12.52-7.11.3.24.76.32.81.81-1.72,2.84-4.94,3.42-7.53,4.91-5.71,3.26-11.53,6.34-17.3,9.49Z"/>
      <path class="cls-75" d="m162.48,159.89c.29.6.82.78,1.43.84-7.16,3.97-14.31,7.94-21.48,11.88-.65.36-1.44.46-2.16.68-.12-.15-.24-.3-.36-.46,1.81-3.53,5.41-4.85,8.52-6.69,3.49-2.07,7.37-3.44,10.58-6.04.99-.8,2.25-1.28,3.48-.21Z"/>
      <path class="cls-26" d="m65.79,15.29c-7.04,4.45-14.23,8.62-21.61,12.47.46-3.24,3.75-3.09,5.6-4.65,3.79-3.2,8.56-4.75,12.64-7.49.82-.56,2.23-.24,3.37-.33Z"/>
      <path class="cls-9" d="m54.99,182.48c-.02,2.05-.05,4.11-.07,6.16-1.05-1.89.12-4.07-.83-6.12-4.65,1.32-7.93,5.59-12.94,6.11-1.07.36-2.07.88-3.1,1.3-1.52.62-3,.72-3.32-1.5,2.92-2.44,7.02-2.07,10.11-4.34,1.81-1.33,3.98-2.34,6.07-3.3,1.79-.82,3.81-1.47,4.08,1.7Z"/>
      <path class="cls-43" d="m164.15,129.66c-.56.28-1.11.55-1.67.83-1.55-3.33-5.19-3.84-7.81-5.69-3.56-2.51-7.43-4.59-11.15-6.87-.55-.34-1.11-.76-.34-1.45,6.48,3.86,12.96,7.73,19.45,11.58.66.39,1.38.71,1.52,1.59Z"/>
      <path class="cls-56" d="m34.84,188.6c2.09,2.65,4.21-.7,6.31.03-2.73,2.46-5.45,3.39-8.67.61-1.11-.96-1.51-1.77-1.47-3.16.07-2.26-.09-4.53-.15-6.79,0,0,.34.07.34.07.66-.72,1.39-.69,2.17-.22.85,3.1-.22,6.5,1.47,9.48Z"/>
      <path class="cls-35" d="m127.67,33.79c.25-.25.49-.5.74-.75.62.09,1.26.13,1.61.79.53.69.49,1.45.27,2.24-2.78,1.29-5.59,2.52-8.29,3.97-1.37.73-2.84,1.31-4.35.21-.36-.67-.13-1.26.43-1.61,3.06-1.88,6.09-3.83,9.59-4.84Z"/>
      <path class="cls-36" d="m108.37,201.76c-.27-.27-.54-.54-.81-.81,3.11-3.55,1.28-7.75,1.28-11.62,0-1.94-.27-3.7.96-5.33.14,5.09.23,10.18.45,15.26.07,1.5-.83,1.99-1.88,2.5Z"/>
      <path class="cls-4" d="m130,36.18c0-.79.01-1.57.02-2.36,1.55.86,1.17,2.29,1.14,3.65-.11,4.93-.19,9.87-.28,14.8,0,0-.34-.06-.34-.06-.26-.03-.67-.05-.71-.19-1.34-5.29-2.57-10.6.17-15.85Z"/>
      <path class="cls-65" d="m153.76,106.44c2.38-2.01,5.16-3.31,7.97-4.56-1.85,2.93-3.88,5.53-7.97,4.56Z"/>
      <path class="cls-75" d="m134.66,176.23c0-.27,0-.55,0-.82,1.35-1.82,2.82-3.37,5.4-2.33,0,0,.2.21.2.21-1.51,1.64-3.19,2.99-5.59,2.94Z"/>
      <path class="cls-73" d="m140.06,173.08c-2.17-.08-3.35,2.13-5.4,2.33-1.04-.88-.76-2.1-.77-3.22-.02-7.26-.05-14.52.02-21.78.02-1.74-.19-3.28-1.53-4.5.77.08,1.55.17,2.32.25,5.63-2.04,10.74-4.99,15.43-8.69,3.88-2.68,7.99-4.96,12.3-6.88,1.01,1.49.77,3.2.77,4.84.02,6.79.01,13.58.03,20.37,0,1.42.05,2.83-.75,4.09-3.4-.31-4.78,3.02-7.47,4.21-5.29,2.34-10.57,4.98-14.95,8.97Z"/>
      <path class="cls-14" d="m131.14,120.49c-4.93,4.11-10.29,7.55-16.21,10.05-1.46.62-2.94,1.06-2.91,3.04-2.51,2.74-1.13,6.05-1.19,9.09-.03,1.64.33,3.27-.43,4.83-4,3.07-8.23,5.62-13.48,5.79-1.48-.89-2.25-2.38-1.88-3.9,1.04-4.35-.45-8.6-.23-12.9-.17-4.54-.55-9.09.31-13.61,1.63-2.69,4.55-3.71,7.08-5.07,8.58-4.63,16.92-9.69,25.44-14.43.21-.11.48-.05.75.01,1.91,1.75,1.07,4.05,1.19,6.13.2,3.47-.73,7.12,2.01,10.1.31.34-.15.64-.44.87Z"/>
      <path class="cls-58" d="m131.14,120.49c-3.16-2.42-2.65-5.86-2.77-9.23-.1-2.61.87-5.34-.63-7.84-2.42-.45-5.24-.1-6.42-3.11.25-.59.67-1,1.28-1.21,6.1.49,7.21,1.53,8.14,7.4.32,2.03.49,4.06.53,6.11.03,2.08.79,3.72,2.68,4.74.67-.25,1.34-.5,2.02-.75-.4,2.79-3.21,2.59-4.82,3.89Z"/>
      <path class="cls-40" d="m109.79,147.62c.03-4.16.07-8.32.1-12.49.01-1.49-.15-3.19,2.13-1.56.3.33.61.65.91.98-2.61,2.46-1.56,5.49-1.06,8.29.48,2.73.23,5.06-1.85,7.01-.31-.18-.53-.44-.64-.78-.09-.55.07-1.03.41-1.46Z"/>
      <path class="cls-27" d="m150.13,137.47c-1.47,3.1-4.85,3.9-7.31,5.76-1.96,1.48-4.65,2.01-6.61,3.78-.82.74-1.36.07-1.51-.85,5.14-2.9,10.29-5.79,15.43-8.69Z"/>
      <path class="cls-59" d="m34.84,188.6c-4.48-2.45-1.94-6.04-1.52-9.29.15-1.28,1.02-2.02,2.04-2.63,4.59-2.77,8.8-6.18,14.03-7.83,3.64-1.15,5.14-3.99,5.22-7.66.08-3.59,0-7.19.04-10.78.01-1.53-.18-3.12,1.12-4.32.25-.02.51-.03.77-.04.73.32,1.13.93,1.45,1.62.43,3.26,2.81,3.56,5.41,3.54.85.16,1.61.45,2.14,1.18,1.31,3.46.95,6.97.37,10.49-2.08,2.27-5.67,1.94-7.65,4.5-.76.98-2.15,1.46-2.17,2.98.61,2.49,2.93,3.03,4.75,4.03,5.26,2.9,10.52,5.8,15.87,8.51,2.98,1.51,4.47,3.58,3.87,7.05-.53,3.11.65,6.37-.74,9.42-.03,4.9-.07,9.81-.1,14.71-2.46-.56-4.31-2.21-6.23-3.65-4.27-3.21-9.12-5.25-13.92-7.46-2.06-.95-3.63-2.33-3.51-5.59.18-4.93.69-10.06-1.07-14.92-.9-1.79-2.03-1.88-3.68-.79-5.05,3.32-10.27,6.3-16.47,6.91Z"/>
      <path class="cls-17" d="m79.81,199.38c-.03-3.61-.05-7.21-.07-10.82-.01-1.96-.76-3.16-2.7-4.15-7.07-3.61-13.97-7.53-20.96-11.28-1.43-.77-2.55-1.45-1.14-3.15.88-1.42,2.22-1.29,3.4-.72,3,1.45,6.1,2.7,9.14,4.05,7.94,3.52,15.92,7.31,24.83,2.52,3.19-1.72,7.18-1.88,9.9-4.78-1.36-1.83-3.81-1.22-5.12-2.75-.55-.98-.6-2.01-.28-3.07.16-.43.41-.8.74-1.11,5.14-2.41,11.39-.67,13.45,3.75.16,2.11.62,4.28-1.17,6.01-7.9,3.2-15.64,6.72-22.99,11.1-3.84,2.29-6.22,5.02-5.66,9.83.17,1.48,1.18,3.71-1.36,4.59Z"/>
      <path class="cls-24" d="m109.83,173.86c.02-2.06.03-4.11.05-6.17.85-1.4,1.98-1.84,3.42-.91,1.07.68,2.22.97,3.47.97,4.07,2.35,8.21,4.57,12.16,7.1,1.36.87,2.66,1.4,4.19,1.58,0,1.79-.02,3.58-.02,5.37-.03,6.92-1.87,7.86-8.47,5.65-4.73-1.59-8.85-4.88-14.06-5.1-1.47-2.72-.25-5.68-.74-8.49Z"/>
      <path class="cls-6" d="m116.77,167.75c-.79,1.19-1.37,3.03-2.92.52-1-1.62-2.49-1.48-3.97-.57-1.11-1.99-6.89-4.17-9.63-3.64-.85.16-1.7.3-2.56.44-2.18-2.38-1.18-5.15-.96-7.82,2.53-4.62,7.66-5.47,11.66-7.96.45-.28.98.04,1.39.36.08.26.15.53.23.79-.03,2.96.19,5.95-.17,8.87-.51,4.18,1.2,6.55,5.07,7.73.68.21,1.23.85,1.84,1.29Z"/>
      <path class="cls-72" d="m36.4,54.74c1.72-.86,1.52-2.45,1.52-3.97,0-4.93.05-9.86,0-14.79-.02-1.35.02-2.5,1.63-2.85.27-.29.59-.36.97-.24.67.36,1.11.94,1.48,1.58,3.45,3.46,7.72,5.69,12.01,7.85,2.39,1.2,4.86,2.25,6.97,3.94,4.05,2.66,8.27,5.04,12.15,7.95,2.26,1.7,5.27,1.8,7.53,3.59,1.31,1.04,2.79,1.81,3.21,3.61.74,8.6.18,17.21.35,25.81.09,4.75-.19,9.5.26,14.24.27,1.34.33,2.67-.32,3.94-1.6,1.55-2.49.43-2.98-.99-.6-1.71-1.48-2.86-3.42-2.88-4.33-1.02-8.1-2.86-10.67-6.73-1.64-2.48-3.63-4.07-6.53-1.49-.55.49-1.2.15-1.72-.27-.56-.94-1.33-1.37-2.48-1.37-1.57,0-2.57-.9-3.02-2.4,1.07-7.1-2.33-10.68-9.13-11.63-1.05-.15-1.89-1.52-3.14-.54-4.25-1.17-5.21-3.95-4.78-8.16.48-4.69.12-9.47.13-14.22Z"/>
      <path class="cls-25" d="m41.05,77.12c.11-1.11.43-3.1,1.72-1.76,2.44,2.53,5.85,2.04,8.61,3.57,2.24,1.24,2.98,2.2,2.83,4.48-.13,2.04-.03,4.1-.04,6.14-2.63-1.5-3.64-4.72-6.51-6-1.11-.5-1.98-1.56-3.35-1.64-.9,1.84.29,3.33.43,4.92.38,4.23,1.9,8.61-1.53,12.38-1.59.52-3.15,1.11-4.69,1.75-1.83.76-2.57,2.01-2.93,4.07-.6,3.44-.86,7.08-3.05,10.07-.59.66-1.39.98-1.98.26-4.85-5.92-12.4-7.61-18.34-11.81-.61-.43-1.32-.75-1.99-1.09-5.14-2.61-7.11-6.58-6.47-12.46.58-5.32.11-10.75.15-16.13,0-1.23-.4-2.59.72-3.63,6.37,2.35,12.1,5.96,17.71,9.65,6.85,4.51,12.42,4.58,18.66-.54.96-.78.79-1.47.04-2.23Z"/>
      <path class="cls-42" d="m40.1,33.1c-.18,0-.37,0-.55.03-.09-2.09,2.02-1.53,2.92-2.42.91.04,1.84.1,2.56-.57,5.52-5.19,13.18-6.85,19.04-11.38,5.28-4.07,11.45-6.47,16.97-10.04,2.12-1.37,3.69-1.34,5.9.1,7.01,4.53,14.45,8.4,21.31,13.14,4.3,2.98,9.66,4.1,13.34,8.05.67.72,1.91,1.02,1.68,2.31-.22,1.25-1.31,1.31-2.31,1.65-7.56,2.51-13.65,7.69-20.55,11.39-5.38,2.89-10.6,6.09-16.35,8.26-1.37.52-2.85.67-4.12-.07-6.09-3.6-12.02-7.5-18.23-10.88-4.39-2.39-8.78-4.71-12.76-7.75-.59-.45-1.74-.17-2.63-.23-2.62,1.65-4.32-.38-6.22-1.57Z"/>
      <path class="cls-13" d="m40.1,33.1c2.07.52,4.15,1.05,6.22,1.57,5.49,4.95,12.44,7.6,18.49,11.69,4.76,3.21,10.01,5.7,14.84,8.82,2.25,1.45,4.15,1.13,6.12.06,10.26-5.55,20.47-11.18,30.71-16.78,2.93-1.6,5.87-3.19,8.8-4.8.85-.47,1.64-.77,2.4.12-3.43,2.06-6.86,4.12-10.29,6.18-.83,1.85-2.87,2.13-4.22,3.31-8.93,4.38-17.38,9.62-26.04,14.48-1.35.76-2.69,1.45-4.27,1.52-7.41-3.12-14.04-7.62-20.86-11.79-.54-.33-1.1-.64-1.65-.97-3.83-3-8.6-4.39-12.48-7.27-2.21-1.64-5.04-2.39-6.74-4.74-.34-.47-.69-.93-1.03-1.4Z"/>
      <path class="cls-71" d="m32.55,115.11c-.48-4.04,2.7-7.5,1.83-11.65-.21-1,.58-1.97,1.58-2.42,2.13-.95,4.05-2.56,6.62-2.21.53.23.98.53.99,1.19-.04.12-.05.27-.14.35-3.54,3.63-3.52,3.59,1.33,6.12,5.21,2.72,10.34,5.62,15.2,8.91,3.27,2.22,7.36,2.84,10.25,5.67-.02,4.15.93,8.25.58,12.41.1,1.42.14,2.83-.19,4.22-.31,1.34-1.33,2.02-2.47,2.55-1.15.54-1.63,1.42-1.55,2.66-.21,2.05-.42,4.08-.21,6.15.13,1.29.17,2.63-1.41,3.2-.74-.03-1.48-.05-2.22-.08-1.59-1.8-4.27-2.32-5.47-4.59-.58-.35-.75-.91-.75-1.54-.55-3.78-1.06-7.56-1.67-11.33-.32-1.98-2.21-2.03-3.59-2.38-3.69-.93-8.42-.28-10.75-3.26-2.22-2.84-1.48-7.3-1.78-11.07-.37-4.69-3.46-3.33-6.17-2.89Z"/>
      <path class="cls-34" d="m3.89,129.03c3.35-3.89,8.36-5.27,12.39-8.12,1.36-.96,2.99-1.55,4.34-2.52,3.06-2.19,6.05-2.68,9.23-.26.6.45,1.47,1.32,2.26.08,4.42-2.38,4.49-2.26,4.61,2.83.07,2.79.69,5.56.96,8.36.16,1.69,1.43,1.85,2.63,2.33,3.96,1.58,8.38,1.31,12.25,3.15.1,1.16-.47,2.05-1.37,2.57-5.94,3.46-11.43,7.72-17.95,10.18-1.19.17-2.34-.05-3.36-.62-9.07-5.04-18.18-10.03-27-15.51-.54-1.18.04-1.9,1-2.47Z"/>
      <path class="cls-66" d="m3.89,129.03c-.22.78-.44,1.56-.66,2.33,1.56,2.08,1.92,4.58,1.78,6.98-.34,5.65.36,11.32-.27,16.95-.23,2.02.35,3.38,2.04,4.58,6.62,4.72,13.97,8.21,20.72,12.71,2.54,1.69,3.56.96,3.76-2.33.3-4.9-1.08-9.72-.73-14.64.13-1.92.13-3.86.31-5.78.15-1.6.88-2.6,2.44-3,6.53-3.82,13.34-7.18,19.28-11.96,2.45,1.98.95,4.78,1.48,7.16.51,6.19.59,12.4.48,18.61-.04,2.14.17,4.42-1.97,5.87-6.33,3.17-13.01,5.73-18.52,10.37-.69.44-1.39.72-2.18.25-6.77-1.03-11.33-6.25-17.17-9.05-2.29-1.1-4.21-3.12-6.56-3.88-5.11-1.64-6.18-4.92-5.96-9.9.33-7.41-.15-14.86-.33-22.29-.04-1.55.09-2.87,2.06-2.99Z"/>
      <path class="cls-76" d="m31.85,177.14c.55-.15,1.2-.11,1.46-.78,6.11-3.52,12.19-7.09,18.61-10.03,1.83-.62,1.93-2.04,1.9-3.68-.07-4.58-.07-9.16,0-13.74.02-1.03-.59-2.29.67-3.09.41.09.83.18,1.24.26,0,5-.03,10,.01,15,.03,3.94-1.52,7.28-5.18,8.52-6.42,2.18-11.63,6.27-17.27,9.7-.7.01-1.41.03-2.11.04-.76-1.02.25-1.53.65-2.22Z"/>
      <path class="cls-77" d="m54.51,145.82c-.06,5.52-.27,11.05-.11,16.57.08,2.62-.8,4.13-3.23,4.86-.38-.35-.42-.73-.12-1.14,2.2-.81,2.43-2.52,2.49-4.62.19-6.48-.63-12.99.5-19.44.16,1.27.31,2.53.47,3.79Z"/>
      <path class="cls-39" d="m113.03,42.33c1.28-1.1,2.68-1.99,4.35-2.37,2.94.48,5-1.5,7.37-2.62,1.64-.77,3.1-2.56,5.24-1.16-.18,5.36-.41,10.72.54,16.04.11.84.23,1.67.34,2.51,1.17,1.06,1.23,2.5,1.23,3.9-.02,4.72.36,9.46-.26,14.16-1.26,3.57-5.12,4.26-7.41,6.69-.33.2-.7.27-1.08.25-4-1.72-6.28-1.09-8.3,3.15-1.98,4.16-4.74,7.17-9.14,8.6-.58.37-1.2.68-1.75,1.11-.4.34-.82.67-1.24.99-5.28,2.94-10.59,5.85-16.03,8.49-1.1.31-2.22.76-3.27-.13-1.31-1.27-.77-2.91-.78-4.39-.04-12.47-.03-24.93-.03-37.4-.21-.19-.3-.39-.24-.6.05-.22.11-.32.18-.32,2.01-.44,3.75-1.43,5.56-2.42,7.95-4.38,15.49-9.47,23.71-13.37.48-.23.81-.62,1.02-1.11Z"/>
      <path class="cls-21" d="m162.5,70.25c1.26,7,.62,14.07.78,21.11.08,3.37-.08,6.65-1.55,9.74-1.56-.35-2.85-.07-4.32.84-4.89,3.05-9.84,6.05-15,8.61-2.11,1.04-5.07,0-6.96,2.2-1.45-.5-1.83-1.75-1.91-3.05-.51-8.45.47-16.82,1.23-25.21.37-.79.98-1.31,1.78-1.61,2.02.28,3.6-.71,5.24-1.71,5.54-3.38,11.56-5.91,16.91-9.6.44-.34.92-.57,1.49-.57.77-.25,1.53-.49,2.3-.74Z"/>
      <path class="cls-8" d="m137.02,83.33c-.54.28-1.07.56-1.61.84-3.71,1.55-5.7-.83-7.63-3.34-1.83-3.49,1.98-4.54,2.97-6.81.04-6.43.08-12.85.12-19.28,1.17-1.63,2.56-1.79,4.31-.87,6.7,3.49,13.02,7.69,20.04,10.64,2.5,1.05,3.91,3.86,4.96,6.5-.25.26-.51.51-.76.77-6.37,3.23-12.59,6.76-18.86,10.17-1.15.62-2.33,1.03-3.55,1.4Z"/>
      <path class="cls-41" d="m128.42,80.39c1.75,2.33,4.14,3.49,6.99,3.78-.25,7.92-.51,15.83-.75,23.75-.05,1.65-.16,3.33.78,4.83.16,1.75-.86,3.12-1.51,4.61-3.16,1.92-3.44-.74-3.79-2.61-.51-2.73-.5-5.59-.59-8.33-.12-3.84-1.62-5.54-5.1-6.13-.74-.12-1.44-.46-2.16-.69-.96.32-1.65-.09-2.23-.8-.41-.65-.88-1.41-.65-2.13,1.77-5.65,1.82-11.72,4.28-17.19h.15c1.81-1.13,3.25-.41,4.58.91Z"/>
      <path class="cls-62" d="m121.45,100.41c1.57,2.09,4.86.61,6.28,3.02-.08,1.04-.26,1.82-1.45,2.4-9.57,4.66-18.61,10.27-27.8,15.6-.74.43-1.7.48-2.55.7-2.99.18-4.92-2.06-7.33-3.21-1.87-1.49-4.18-2.42-5.59-4.48-.45-.89-.79-1.79-.23-2.77,4.52-2.45,9.65-3.25,14.29-5.41,5.21-2.42,10.79-4.1,15.25-7.95.6-.6,1.32-.89,2.16-.87,2.54.48,5.15.8,6.97,2.97Z"/>
      <path class="cls-22" d="m97.6,156.06c.03,2.81.06,5.62.09,8.43-.06.29-.13.58-.19.86-2.07-.19-1.82-1.92-1.85-3.16-.06-2.52-.68-4.74-2.19-6.78-.86-1.16-1.2-2.55-.78-4,.59-2.02.38-4.04.11-6.07.39-5.63.32-5.72-5.33-7.18-1.46-.38-3.1-.23-4.29-1.45-2.53-6.9-1.91-13.89-.57-20.9,3.34.08,6.3,2.59,6.62,5.85.23,2.28.29,4.59-.31,6.86-.4,1.5-.63,3,.11,4.47,1.51,2.74,4.89,2.01,6.94,3.73.01,4.28.95,8.53.26,12.85-.21,1.29-.13,2.83,1.34,3.68.88.92.71,1.86.03,2.8Z"/>
      <path class="cls-11" d="m95.97,136.73c-2.94-.15-6.2.47-7.76-3.12-.01-5.16.36-10.3.81-15.44,2.3,1.32,4.6,2.63,6.91,3.95.01,4.87.03,9.74.04,14.61Z"/>
      <path class="cls-78" d="m97.6,156.06c-.01-.93-.02-1.87-.03-2.8,4.07-1.88,8.15-3.76,12.22-5.64,0,.48,0,.97,0,1.45-3.26,1.77-7.39,2.05-9.56,5.72-.52.88-1.59,1.19-2.63,1.27Z"/>
      <path class="cls-7" d="m121.45,100.41c-2.4-.78-4.8-1.55-7.2-2.33,0-.43.15-.78.47-1.07,2.48-1.05,4.29.19,6.01,1.76.52.27,1.04.55,1.56.82-.28.27-.57.54-.85.81Z"/>
      <path class="cls-15" d="m64.96,152.25c.87-3.31-.78-6.82.81-10.07.79-.74,1.69-.54,2.49-.14,4.88,2.47,9.8,4.89,13.66,8.94,1.89,4.9.37,9.93.52,14.9.12,3.83.13,7.68-.18,11.51-.49,1.07-1.33,1.62-2.39.96-2.42-1.51-5.32-2.23-7.3-4.43-.76-1.82-2.2-2.58-4.1-2.61-1.15-.18-2.14-.74-3.1-1.36-3.67-2.36-3.75-3.48-.43-6.15,0-3.85,0-7.69,0-11.54Z"/>
      <path class="cls-29" d="m72.8,173.08c2.66,1.89,5.47,3.52,8.51,4.72,5.14-3.62,11.13-5.75,16.32-9.28,2.86-1.11,4.73,1.39,8.12,1.83-7.57,5.24-15,8.17-23.28,8.94-2.24.21-4.33-.37-6.26-1.54-.44-.27-.89-.62-1.37-.68-6.13-.81-11.14-4.31-16.57-6.82-1.02-.47-2.18-.88-3.34-.26,1.58-4.05,6.45-7.05,10.01-6.18-.33,1.09,1.35,3.79-2.78,1.75,2.27,2.89,4.44,4.14,6.72,5.22,1.59.29,3,.87,3.91,2.31Z"/>
      <path class="cls-19" d="m57.27,147.58c1.87,1.47,5.27,1.13,5.47,4.59-3.56.54-5.83-.45-5.47-4.59Z"/>
      <path class="cls-2" d="m97.64,168.52c-.64,3.1-3.6,3.24-5.71,4.44-3.39,1.93-6.64,4.18-10.61,4.84-.01-9.04-.03-18.09-.04-27.13-.71-.95-.33-1.91.51-2.26,3.8-1.6,7.54-3.51,11.87-3.15-.45,5.9,2.2,11.24,3.08,16.89.17,1.1-.23,2.32.78,3.21.04,1.05.09,2.1.13,3.16Z"/>
      <path class="cls-12" d="m43.52,99.71c-.31-.29-.62-.59-.93-.88,2.65-3.89,1.72-8.07.88-12.19-.43-2.12-2.01-5.05-.42-6.15,2.02-1.39,3.96,1.4,5.85,2.6,2.48,1.57,4.9,3.19,5.29,6.47.52,1.05,1.19,1.47,2.47,1.17,1.24-.29,2.7-.29,2.08,1.81-.19.73-.7,1.21-1.28,1.64-1.47.99-3.24,1.4-4.67,2.47-3.13.89-5.56,3.92-9.27,3.08Z"/>
      <path class="cls-54" d="m57.33,93.33c.47-.27.94-.54,1.41-.8.36.1.87.42,1.06.28,3.94-2.92,6.02-2.63,8.37,1.61,2.06,3.72,5.7,4.68,9.23,5.96.67,1.91-.43,3.24-1.96,3.55-1.92.38-2.22,1.83-2.99,3.06-.36.15-.84.4-1.1.22-4.41-2.95-9.75-4.11-14.07-7.22-1.17-.84-1.6-1.97-.87-3.35.74-.98,1.49-1.96.91-3.31Z"/>
      <path class="cls-30" d="m72.75,106.58c-.74-1.56-3.42-3.86,1.34-3.18,2.12.3,2.54-1.63,3.3-3.01,2.98-.36,5.03.34,4.71,3.96-.08.89.61,1.31,1.45,1.43,1.17,1.09,1.1,2.34.49,3.67-3.68,1.82-7.14.77-10.51-.91-.7-.35-1.07-1.08-.78-1.96Z"/>
      <path class="cls-52" d="m83.54,109.66c0-1.29.02-2.59.03-3.88.02-1.28.03-2.55.05-3.83,1.03-.25,2.06-.5,3.08-.76,3.14,1.08,6.2,2.23,6.45,6.29-2.2,2.66-5.49,2.54-8.43,3.32-.65-.12-1.01-.53-1.17-1.15Z"/>
      <path class="cls-48" d="m82.81,59.4c0,.25,0,.51,0,.76-7.8-3.84-15.36-8.07-22.43-13.15-.34-.37-.31-.71.08-1.03,6.19,3.63,12.37,7.27,18.56,10.89,1.2.7,2.28,1.7,3.8,1.72.28.18.37.36.28.54-.09.18-.18.27-.28.27Z"/>
      <path class="cls-55" d="m60.45,45.98c-.03.34-.05.69-.08,1.03-5.63-3.63-12.05-5.85-17.4-9.99-.96-.74-1.93-1.14-1.84-2.51,6.44,3.83,12.88,7.65,19.33,11.48Z"/>
      <path class="cls-61" d="m82.81,59.4c0-.27,0-.54,0-.81,7.91-4.35,15.86-8.65,23.72-13.09,2.11-1.2,4.25-2.28,6.5-3.17.59,1.83-1.14,1.68-1.95,2.07-3.88,1.88-7.2,4.68-10.92,6.7-4.87,2.65-9.77,5.22-14.38,8.31-.99.66-1.98,0-2.97-.02Z"/>
      <path class="cls-31" d="m43.52,99.71c3.04-1.33,6.08-2.65,9.12-3.98.76-.6,1.34-.32,1.83.38,1.12,3.41,4.32,4.79,7.04,5.98,3.17,1.39,6.06,3.13,9.04,4.81,3.34,1.88,7.07,2.76,10.78,3.65.69.33,1.3.76,1.55,1.54.24.71.48,1.42.72,2.12-3.76,1.74-7.41,3.7-10.92,5.91-1.14-.41-2.14.05-3.14.52-3.49.28-6.05-1.96-8.71-3.55-6.78-4.06-13.51-8.19-20.57-11.75-.86-.43-2.17-.62-2.19-1.86-.03-1.27,1.3-1.39,2.15-1.88,1.1-.64,2.2-1.26,3.3-1.9Z"/>
      <path class="cls-20" d="m93.64,145.25c-3.11,1.4-6.29,2.57-9.68,3.17-1.26.22-2.51.65-2.7,2.24-4.58-2.63-9.15-5.27-13.74-7.87-.53-.3-1.17-.41-1.76-.61-1.29-3.91,2.91-2.28,3.92-3.88,2.88-2.74,9.94-3.53,13.9-1.56,3.31-.74,6.32.77,9.15,1.85,3.39,1.29,1.13,4.33.9,6.67Z"/>
      <path class="cls-53" d="m83.59,136.74c-4.69.04-9.36.23-13.9,1.56.01-1.57.03-3.15.04-4.72,1.77-1.3.53-3.2.95-4.77,1.01-1.96.96-4.14,1.29-6.24.1-.36.26-.69.44-1.02,1.9-2.83,5.19-3.94,7.63-6.12.81-.73,2.1-1.17,2.77.47.99,1.97.14,3.96.03,5.94-.29,5,.18,9.95.74,14.9Z"/>
      <path class="cls-10" d="m71.37,128.92c-.22,1.67,1.9,4.17-1.64,4.66.32-4.32-1.09-8.61-.18-12.94.79-1.07,1.83-1.34,3.07-.98.73.77.43,1.55.04,2.34h.04c-1.26,2.15-.32,4.72-1.32,6.92Z"/>
      <path class="cls-46" d="m33.28,146.83c-1.94,1.65-1.29,3.96-1.5,6.03-.6,5.92.81,11.76.76,17.66-.02,1.7.07,3.4-1.65,4.43-1.82,1.09-2.88-.57-4.09-1.3-7.18-4.31-14.29-8.74-21.47-13.06-1.49-.89-2.32-1.98-2.14-3.73.81-8.12.98-16.24-.03-24.35-.05-.38.04-.77.07-1.15,8.1,3.17,15.23,8.12,22.75,12.36,2.32,1.31,4.47,2.99,7.3,3.11Z"/>
      <path class="cls-64" d="m51.06,166.09c.04.38.08.76.12,1.14-6.19,2.59-11.25,7.36-17.86,9.11,5.08-4.86,11.57-7.28,17.74-10.26Z"/>
      <path class="cls-18" d="m111.44,77c.02,6.39-3.69,10.06-9.54,10.99-.87.14-2.04-.25-2.52.62-2.47,4.51-5.94,2.67-9.33,1.62-.96-.3-1.51-.83-1.75-1.82-1.28-5.17-.58-10.42-.71-15.64-.02-.67.42-1.22,1.16-1.32,6.71-.98,11.46-5.76,17.02-8.93,3.6-2.05,3.7-2.17,4.17,1.91.54,4.7,1.13,9.4,1.51,12.56Z"/>
      <path class="cls-50" d="m120.73,98.77c-2.21-.09-4.08-1.91-6.43-1.29-.16-.08-.32-.16-.49-.23-2.3-2.82-6.38-3.21-8.55-6.21,1.41-2.11,4.31-1.7,5.96-3.79,1.78-2.26,2.4-5.04,4.19-7.24,2.53-3.12,6.34-3.46,8.29-.53.14,5.3-1.36,10.34-2.78,15.34-.41,1.46-.46,2.62-.19,3.96Z"/>
      <path class="cls-45" d="m92.86,107.28c-1.08-3.02-4.39-3.77-6.16-6.08,5.4-2.86,10.79-5.72,16.19-8.58,1.27.17,1.98,1.08,2.68,2.01.55.73,1.24,1.27,1.98,1.8,3.51,2.52,3.43,3.58-.24,5.61-4.06,2.25-8.39,3.86-12.71,5.52-.66.25-1.24.27-1.74-.28Z"/>
      <path class="cls-33" d="m104.54,94.57c-.55-.65-1.11-1.3-1.66-1.96.29-.25.58-.5.87-.75,4.25.53,7.53,2.95,10.71,5.55,0,0-.16.07-.16.07-.02.2-.03.4-.05.59-.45.29-.91.57-1.36.86-3.42-.24-5.87-2.33-8.34-4.37Z"/>
      <path class="cls-16" d="m128.42,80.39c-1.53-.3-3.05-.6-4.58-.9,1.27-3.13,4.44-3.86,6.91-5.48.08,1.17.04,2.42-1.18,2.92-1.86.76-1.26,2.15-1.15,3.46Z"/>
      <path class="cls-7" d="m114.46,97.42c-3.57-1.85-7.14-3.7-10.71-5.55.3-.64.9-.75,1.51-.83,3.4,1.64,7.38,2.45,9.2,6.37Z"/>
      <path class="cls-68" d="m137.02,83.33c1.7-2.49,4.6-3.26,7.08-4.3,5.23-2.2,9.35-6.74,15.34-7.27-1.82,2.83-5.07,3.66-7.73,5.17-3.75,2.12-7.65,4.01-11.21,6.45-1.32.9-2.32.77-3.47-.05Z"/>
      <path class="cls-70" d="m104.54,94.57c2.78,1.46,5.56,2.91,8.34,4.37.15,1.84-1.47,1.82-2.52,2.36-8.77,4.59-17.85,8.39-27.48,10.78-.58-.25-1.16-.51-1.74-.77.71-1.55,1.9-1.47,3.22-.93,2.93-.78,6.05-1,8.49-3.11,4.8-1.44,9.42-3.32,13.84-5.67,3.46-1.84,3.51-2.26.27-4.24-1.13-.69-2.17-1.38-2.43-2.79Z"/>
      <path class="cls-5" d="m72.66,122c-.59-.77-.21-1.56-.04-2.34,3.06-3.03,6.41-5.47,10.98-5.45,1.81,1.32,3.61,2.64,5.42,3.97.22,5.17.06,10.33-.81,15.44-1.93-1.85-.55-3.89-.2-5.78,1.21-6.43-.13-9.68-5.2-11.94-4.06-.96-4.83,3.9-8.03,4.55-.78.16-1.42,1.01-2.13,1.54Z"/>
      <path class="cls-2" d="m72.8,173.08c-1.36-.67-2.85-1.12-3.91-2.31,2.27-.86,3.51.02,3.91,2.31Z"/>
      <path class="cls-69" d="m54.15,96.39c-.5-.22-1-.44-1.5-.66,1.28-1.35,3.17-1.5,4.68-2.39.87.12,1.82.34,1.9,1.35.09,1.24-1.24,1.28-1.96,1.83-1.06.68-2.12,1.03-3.11-.12Z"/>
      <path class="cls-49" d="m54.15,96.39c1.04.04,2.08.08,3.11.12-1.13,3.62,2.51,4.46,4.01,4.71,3.79.65,6.37,2.92,9.28,4.88.58.39,1.46.33,2.21.48,1.94,2.41,4.83,2.48,7.49,2.66,1.12.08,2.18.4,3.29.42.28.24.55.49.83.73-1.17-.03-2.23.35-3.22.93-9.93-2.25-18.19-8.02-26.93-12.79-1.33-.73-1.39-1.38-.07-2.14Z"/>
      <path class="cls-5" d="m71.37,128.92c.21-2.35-1.4-5.05,1.32-6.93-.04,2.39.64,4.91-1.32,6.93Z"/>
    </g>
    <g>
      <path class="cls-42" d="m231.68,58.14c0-24.85,17.1-38.99,35.8-38.99,9.8,0,17.78,4.56,23.03,9.8l-10.26,12.54c-3.65-3.19-7.3-5.47-12.31-5.47-8.66,0-16.19,7.98-16.19,21.43s6.38,21.66,15.96,21.66c5.7,0,10.26-2.96,13.45-6.38l10.26,12.31c-6.27,7.3-14.82,10.94-24.4,10.94-18.92,0-35.34-12.54-35.34-37.85Z"/>
      <path class="cls-42" d="m300.08,37.62h15.96l1.37,9.8h.46c4.22-7.75,10.6-11.17,16.19-11.17,3.53,0,5.47.46,7.07,1.14l-3.19,16.87c-2.05-.46-3.88-.91-6.38-.91-4.1,0-9.12,2.51-11.86,9.58v31.69h-19.61v-57Z"/>
      <path class="cls-42" d="m346.59,20.75c0-5.7,4.56-9.8,10.94-9.8s10.94,4.1,10.94,9.8-4.56,9.8-10.94,9.8-10.94-4.1-10.94-9.8Zm1.14,16.87h19.61v57h-19.61v-57Z"/>
      <path class="cls-42" d="m383.07,72.73v-19.84h-7.52v-14.59l8.66-.68,2.28-14.82h16.19v14.82h13v15.28h-13v19.49c0,6.27,3.19,8.32,6.84,8.32,1.82,0,3.65-.46,5.02-.91l2.96,14.14c-2.96.91-7.18,2.05-13.45,2.05-14.82,0-20.98-9.35-20.98-23.26Z"/>
      <path class="cls-42" d="m425.02,20.75c0-5.7,4.56-9.8,10.94-9.8s10.94,4.1,10.94,9.8-4.56,9.8-10.94,9.8-10.94-4.1-10.94-9.8Zm1.14,16.87h19.61v57h-19.61v-57Z"/>
      <path class="cls-42" d="m456.03,66.12c0-18.92,14.36-29.87,30.55-29.87,6.84,0,12.31,2.28,16.64,5.93l-9.12,12.54c-2.51-2.05-4.33-2.74-6.38-2.74-7.3,0-11.63,5.47-11.63,14.14s4.79,14.14,10.94,14.14c3.19,0,6.38-1.6,9.12-3.65l7.52,12.77c-5.7,5.02-13,6.61-18.92,6.61-16.19,0-28.73-10.94-28.73-29.87Z"/>
      <path class="cls-42" d="m509.38,78.43c0-11.86,9.12-18.47,31.01-20.75-.46-4.1-2.96-5.93-7.98-5.93-4.1,0-8.44,1.6-14.36,4.79l-6.84-12.77c7.98-4.79,16.19-7.52,25.08-7.52,14.82,0,23.71,7.98,23.71,26.68v31.69h-15.96l-1.37-5.47h-.46c-4.56,4.1-9.58,6.84-15.73,6.84-10.72,0-17.1-8.21-17.1-17.56Zm31.01-1.37v-7.75c-9.35,1.37-12.31,4.33-12.31,7.52,0,2.62,1.82,4.1,5.24,4.1,3.19,0,5.02-1.6,7.07-3.88Z"/>
      <path class="cls-42" d="m572.76,74.56V15.28h19.61v59.96c0,3.88,1.82,5.02,3.19,5.02.68,0,1.14,0,2.05-.23l2.28,14.36c-2.05.91-5.24,1.6-9.58,1.6-13.22,0-17.56-8.66-17.56-21.43Z"/>
      <path class="cls-42" d="m605.59,20.75c0-5.7,4.56-9.8,10.94-9.8s10.94,4.1,10.94,9.8-4.56,9.8-10.94,9.8-10.94-4.1-10.94-9.8Zm1.14,16.87h19.61v57h-19.61v-57Z"/>
      <path class="cls-42" d="m642.07,72.73v-19.84h-7.52v-14.59l8.66-.68,2.28-14.82h16.19v14.82h13v15.28h-13v19.49c0,6.27,3.19,8.32,6.84,8.32,1.82,0,3.65-.46,5.02-.91l2.96,14.14c-2.96.91-7.18,2.05-13.45,2.05-14.82,0-20.98-9.35-20.98-23.26Z"/>
      <path class="cls-42" d="m684.93,114.91l3.42-14.82c1.03.23,2.51.68,3.65.68,5.24,0,7.75-2.28,8.89-5.7l.68-2.51-21.66-54.95h19.61l6.84,21.89c1.6,5.24,2.74,10.49,4.1,16.19h.46c1.14-5.47,2.28-10.72,3.65-16.19l5.7-21.89h18.7l-19.15,56.09c-5.93,15.39-12.08,22.34-26.22,22.34-3.88,0-6.16-.46-8.66-1.14Z"/>
      <path class="cls-27" d="m230.31,180.39l11.17-13.45c5.24,4.22,11.86,7.18,17.33,7.18,5.93,0,8.44-1.94,8.44-5.24,0-3.53-3.76-4.67-10.03-7.18l-9.23-3.88c-7.98-3.19-14.93-9.92-14.93-20.63,0-12.65,11.4-23.03,27.59-23.03,8.44,0,17.78,3.19,24.62,9.92l-9.8,12.31c-5.02-3.53-9.35-5.36-14.82-5.36-4.79,0-7.75,1.71-7.75,5.02,0,3.53,4.22,4.79,10.94,7.41l9.01,3.53c9.23,3.65,14.48,10.03,14.48,20.29,0,12.54-10.49,23.71-28.96,23.71-9.35,0-20.06-3.42-28.04-10.6Z"/>
      <path class="cls-27" d="m294.61,161.12c0-18.92,14.36-29.87,30.55-29.87,6.84,0,12.31,2.28,16.64,5.93l-9.12,12.54c-2.51-2.05-4.33-2.74-6.38-2.74-7.3,0-11.63,5.47-11.63,14.14s4.79,14.14,10.94,14.14c3.19,0,6.38-1.6,9.12-3.65l7.52,12.77c-5.7,5.02-13,6.61-18.92,6.61-16.19,0-28.73-10.94-28.73-29.87Z"/>
      <path class="cls-27" d="m344.99,161.12c0-18.92,13.68-29.87,28.27-29.87s28.27,10.94,28.27,29.87-13.68,29.87-28.27,29.87-28.27-10.94-28.27-29.87Zm36.48,0c0-8.66-2.28-14.14-8.21-14.14s-8.21,5.47-8.21,14.14,2.28,14.14,8.21,14.14,8.21-5.47,8.21-14.14Z"/>
      <path class="cls-27" d="m411.8,132.62h15.96l1.37,9.8h.46c4.22-7.75,10.6-11.17,16.19-11.17,3.53,0,5.47.46,7.07,1.14l-3.19,16.87c-2.05-.46-3.88-.91-6.38-.91-4.1,0-9.12,2.51-11.86,9.58v31.69h-19.61v-57Z"/>
      <path class="cls-27" d="m455.34,161.12c0-18.47,13.45-29.87,27.36-29.87,16.87,0,24.85,12.31,24.85,27.59,0,3.42-.46,6.84-.8,8.21h-32.49c1.82,6.84,6.84,9.12,13.22,9.12,3.88,0,7.52-1.14,11.63-3.42l6.38,11.63c-6.16,4.33-14.36,6.61-20.75,6.61-16.64,0-29.41-10.94-29.41-29.87Zm35.57-6.84c0-4.33-1.82-8.21-7.75-8.21-4.33,0-7.98,2.51-9.12,8.21h16.87Z"/>
    </g>
  </g>
</svg>